<svg width="12" height="14" viewBox="0 0 12 14" fill="none" xmlns="http://www.w3.org/2000/svg">
<path fill-rule="evenodd" clip-rule="evenodd" d="M1.33333 6.41658C1.6555 6.41658 1.91667 6.67775 1.91667 6.99992V11.6666C1.91667 11.8213 1.97812 11.9697 2.08752 12.0791C2.19692 12.1885 2.34529 12.2499 2.5 12.2499H9.5C9.65471 12.2499 9.80308 12.1885 9.91248 12.0791C10.0219 11.9697 10.0833 11.8213 10.0833 11.6666V6.99992C10.0833 6.67775 10.3445 6.41658 10.6667 6.41658C10.9888 6.41658 11.25 6.67775 11.25 6.99992V11.6666C11.25 12.1307 11.0656 12.5758 10.7374 12.904C10.4092 13.2322 9.96413 13.4166 9.5 13.4166H2.5C2.03587 13.4166 1.59075 13.2322 1.26256 12.904C0.934374 12.5758 0.75 12.1307 0.75 11.6666V6.99992C0.75 6.67775 1.01117 6.41658 1.33333 6.41658Z" fill="#333132"/>
<path fill-rule="evenodd" clip-rule="evenodd" d="M5.58752 0.754106C5.81533 0.5263 6.18467 0.5263 6.41248 0.754106L8.74581 3.08744C8.97362 3.31525 8.97362 3.68459 8.74581 3.9124C8.51801 4.1402 8.14866 4.1402 7.92085 3.9124L6 1.99154L4.07915 3.9124C3.85134 4.1402 3.48199 4.1402 3.25419 3.9124C3.02638 3.68459 3.02638 3.31525 3.25419 3.08744L5.58752 0.754106Z" fill="#333132"/>
<path fill-rule="evenodd" clip-rule="evenodd" d="M6 0.583252C6.32217 0.583252 6.58333 0.844419 6.58333 1.16659V8.74992C6.58333 9.07208 6.32217 9.33325 6 9.33325C5.67783 9.33325 5.41667 9.07208 5.41667 8.74992V1.16659C5.41667 0.844419 5.67783 0.583252 6 0.583252Z" fill="#333132"/>
</svg>
