<svg width="24" height="22" viewBox="0 0 24 22" fill="none" xmlns="http://www.w3.org/2000/svg">
<path fill-rule="evenodd" clip-rule="evenodd" d="M14.5795 0.518785C15.4061 0.176285 16.292 0 17.1868 0C18.0815 0 18.9675 0.176285 19.7941 0.518785C20.6205 0.861222 21.3714 1.3631 22.0039 1.99577C22.6365 2.62822 23.1388 3.37946 23.4812 4.2059C23.8237 5.03249 24 5.91847 24 6.81321C24 7.70795 23.8237 8.59393 23.4812 9.42052C23.1387 10.247 22.6368 10.998 22.0041 11.6305L12.7407 20.8939C12.3315 21.3031 11.668 21.3031 11.2587 20.8939L1.99538 11.6305C0.71776 10.3529 0 8.62004 0 6.81321C0 5.00638 0.71776 3.27356 1.99538 1.99594C3.273 0.71832 5.00583 0.000560384 6.81265 0.000560384C8.61948 0.000560384 10.3523 0.71832 11.6299 1.99594L11.9997 2.36573L12.3693 1.99611C13.0018 1.36337 13.753 0.861254 14.5795 0.518785Z" fill="#EF5B40"/>
<path fill-rule="evenodd" clip-rule="evenodd" d="M14.5795 0.518785C15.4061 0.176285 16.292 0 17.1868 0C18.0815 0 18.9675 0.176285 19.7941 0.518785C20.6205 0.861222 21.3714 1.3631 22.0039 1.99577C22.6365 2.62822 23.1388 3.37946 23.4812 4.2059C23.8237 5.03249 24 5.91847 24 6.81321C24 7.70796 23.8237 8.59393 23.4812 9.42052C23.1387 10.247 22.6368 10.998 22.0041 11.6305C22.004 11.6305 22.0041 11.6304 22.0041 11.6305L12.7407 20.8939C12.3315 21.3031 11.668 21.3031 11.2587 20.8939L1.99538 11.6305C0.71776 10.3529 0 8.62004 0 6.81321C0 5.00638 0.71776 3.27356 1.99538 1.99594C3.273 0.71832 5.00583 0.000560384 6.81265 0.000560384C8.61948 0.000560384 10.3523 0.71832 11.6299 1.99594L11.9997 2.36573L12.3693 1.99611C12.3694 1.99606 12.3693 1.99617 12.3693 1.99611C13.0018 1.36337 13.753 0.861254 14.5795 0.518785ZM17.1868 2.09578C16.5674 2.09578 15.954 2.21783 15.3817 2.45494C14.8095 2.69206 14.2895 3.0396 13.8516 3.47771L12.7407 4.58865C12.3315 4.99788 11.668 4.99788 11.2587 4.58865L10.148 3.47788C9.2634 2.5933 8.06364 2.09634 6.81265 2.09634C5.56166 2.09634 4.36191 2.5933 3.47732 3.47788C2.59274 4.36247 2.09578 5.56222 2.09578 6.81321C2.09578 8.0642 2.59274 9.26396 3.47732 10.1485L11.9997 18.6709L20.5221 10.1485C20.9602 9.71064 21.3079 9.19053 21.5451 8.61827C21.7822 8.04601 21.9042 7.43265 21.9042 6.81321C21.9042 6.19378 21.7822 5.58041 21.5451 5.00815C21.3079 4.43589 20.9604 3.91596 20.5223 3.47806C20.0844 3.03995 19.5641 2.69206 18.9918 2.45494C18.4196 2.21783 17.8062 2.09578 17.1868 2.09578Z" fill="white"/>
</svg>
