<svg width="25" height="13" viewBox="0 0 25 13" fill="none" xmlns="http://www.w3.org/2000/svg">
<path d="M11.3346 12.5519L0.422034 2.01219C0.361743 1.96043 0.321549 1.90866 0.274657 1.85043C0.207667 1.77926 0.147377 1.70162 0.107183 1.61751C0.0937852 1.59163 0.0803873 1.55928 0.0669894 1.52693C0.0334947 1.43635 0.0133979 1.34577 0.00669894 1.25519C0 1.22284 0 1.18402 0 1.1452C0 1.06756 0.0267958 0.989918 0.0468926 0.912277C0.0602905 0.873457 0.0669894 0.821696 0.0870863 0.782876C0.140678 0.679355 0.207667 0.575834 0.301452 0.485254C0.535916 0.232922 0.884261 0.0517604 1.2929 0L23.7746 0.00647005C24.8665 0.00647005 25.4091 1.28107 24.6387 2.02513L13.7261 12.5648C13.1232 13.1536 11.9643 13.1407 11.3346 12.5519Z" fill="#EF5B40"/>
</svg>
